Motion_pu04
version=1
nRows=16
nColumns=43
inDegrees=yes
endheader
time	pelvis_tilt	pelvis_list	pelvis_rotation	pelvis_tx	pelvis_ty	pelvis_tz	hip_flexion_r	hip_adduction_r	hip_rotation_r	knee_angle_r	ankle_angle_r	subtalar_angle_r	mtp_angle_r	hip_flexion_l	hip_adduction_l	hip_rotation_l	knee_angle_l	ankle_angle_l	subtalar_angle_l	mtp_angle_l	lumbar_extension	lumbar_bending	lumbar_rotation	neck_flexion	neck_lateral_bending	neck_rotation	arm_flex_r	arm_add_r	arm_rot_r	elbow_flex_r	pro_sup_r	wrist_flex_r	wrist_dev_r	hand_finger_flex_r	arm_flex_l	arm_add_l	arm_rot_l	elbow_flex_l	pro_sup_l	wrist_flex_l	wrist_dev_l	hand_finger_flex_l
      0.00250000	     -1.77697425	     -2.75163895	   -101.30985973	     -0.00283806	      0.95116163	      0.25090864	     -4.51449438	     -7.18417537	     -7.48261494	    -11.68922286	      8.71324245	     15.98511122	     15.13825519	     -9.62930620	     -3.43053392	    -21.45728083	    -10.11793146	      9.83696366	     12.50494726	     16.05149883	     -4.98731789	      1.02680974	      4.35363281	      1.64493611	     -3.63664616	     12.03798977	     -6.41767423	    -67.06023946	    -78.63648260	     48.54437848	    107.65698950	      6.11083200	     15.86105070	    -27.56459805	    -36.95882715	    -60.21317590	    -95.07706116	     58.01031168	     84.01088121	     -7.18688550	     15.94719544	     21.96020830
      0.00500000	     -1.77770085	     -2.75268260	   -101.31027331	     -0.00281973	      0.95116786	      0.25088923	     -4.51442552	     -7.18400149	     -7.48258669	    -11.68926361	      8.71329118	     15.98515098	     15.13828426	     -9.62908102	     -3.43014667	    -21.45724943	    -10.11799575	      9.83700551	     12.50489569	     16.05151747	     -4.98669172	      1.02663676	      4.35346890	      1.64488266	     -3.63664151	     12.03788860	     -6.41751875	    -67.06033520	    -78.63648112	     48.54443180	    107.65697512	      6.11084130	     15.86095752	    -27.56479543	    -36.95889470	    -60.21331590	    -95.07713083	     58.01041471	     84.01089210	     -7.18692613	     15.94709031	     21.96008914
      0.00750000	     -1.77858817	     -2.75407979	   -101.31074878	     -0.00280107	      0.95117578	      0.25087086	     -4.51418513	     -7.18386085	     -7.48258811	    -11.68928730	      8.71334018	     15.98518618	     15.13831423	     -9.62879228	     -3.42960105	    -21.45720989	    -10.11807975	      9.83703118	     12.50484784	     16.05153506	     -4.98599803	      1.02665842	      4.35325255	      1.64482779	     -3.63664444	     12.03778936	     -6.41738933	    -67.06038824	    -78.63646990	     48.54449615	    107.65696650	      6.11085231	     15.86086317	    -27.56499181	    -36.95896694	    -60.21359604	    -95.07725418	     58.01057516	     84.01090185	     -7.18697423	     15.94697167	     21.95996743
      0.01000000	     -1.77954821	     -2.75562828	   -101.31132201	     -0.00278100	      0.95118537	      0.25084975	     -4.51389555	     -7.18375793	     -7.48260888	    -11.68932345	      8.71338596	     15.98521773	     15.13834468	     -9.62847974	     -3.42896358	    -21.45716402	    -10.11818296	      9.83704391	     12.50480083	     16.05155169	     -4.98525816	      1.02684178	      4.35296767	      1.64476700	     -3.63665470	     12.03769186	     -6.41728234	    -67.06042348	    -78.63645350	     48.54457352	    107.65696361	      6.11086401	     15.86076694	    -27.56518763	    -36.95904126	    -60.21401697	    -95.07742913	     58.01078992	     84.01091102	     -7.18702938	     15.94684048	     21.95984341
      0.01250000	     -1.78053747	     -2.75721024	   -101.31201992	     -0.00275923	      0.95119646	      0.25082509	     -4.51363216	     -7.18370703	     -7.48263618	    -11.68937483	      8.71342617	     15.98524669	     15.13837494	     -9.62813637	     -3.42829604	    -21.45711372	    -10.11828674	      9.83704763	     12.50475296	     16.05156729	     -4.98450065	      1.02714182	      4.35259862	      1.64469638	     -3.63667254	     12.03759566	     -6.41719193	    -67.06047270	    -78.63643718	     48.54466700	    107.65696611	      6.11087523	     15.86066793	    -27.56538338	    -36.95911432	    -60.21458279	    -95.07765284	     58.01105765	     84.01092001	     -7.18709070	     15.94669750	     21.95971753
      0.01500000	     -1.78311635	     -2.76132484	   -101.31425150	     -0.00272381	      0.95121647	      0.25078740	     -4.51290474	     -7.18386356	     -7.48269928	    -11.68953009	      8.71353025	     15.98533595	     15.13847167	     -9.62679392	     -3.42611459	    -21.45693214	    -10.11857028	      9.83703720	     12.50458585	     16.05161497	     -4.98318069	      1.02892393	      4.35143988	      1.64434757	     -3.63672889	     12.03727515	     -6.41687641	    -67.06072178	    -78.63624462	     48.54504399	    107.65698635	      6.11094187	     15.86031226	    -27.56602952	    -36.95931367	    -60.21700566	    -95.07844694	     58.01217889	     84.01095117	     -7.18729660	     15.94618320	     21.95929591
      0.01750000	     -1.78367672	     -2.76184782	   -101.31482981	     -0.00270570	      0.95122281	      0.25076566	     -4.51301849	     -7.18394483	     -7.48270232	    -11.68967484	      8.71354834	     15.98536498	     15.13849984	     -9.62660531	     -3.42566309	    -21.45687998	    -10.11871336	      9.83703082	     12.50452007	     16.05162849	     -4.98289706	      1.02935351	      4.35126542	      1.64421791	     -3.63675628	     12.03718220	     -6.41677134	    -67.06088709	    -78.63616936	     48.54519701	    107.65699538	      6.11096555	     15.86019603	    -27.56622157	    -36.95937927	    -60.21776918	    -95.07872664	     58.01251451	     84.01096439	     -7.18736583	     15.94602807	     21.95916764
      0.02000000	     -1.78446957	     -2.76266625	   -101.31558892	     -0.00268077	      0.95123424	      0.25073284	     -4.51318045	     -7.18412394	     -7.48268888	    -11.68976483	      8.71356785	     15.98539247	     15.13852692	     -9.62627452	     -3.42529330	    -21.45682819	    -10.11878313	      9.83702834	     12.50445312	     16.05164099	     -4.98238249	      1.02966685	      4.35097244	      1.64408960	     -3.63679862	     12.03709118	     -6.41666803	    -67.06115585	    -78.63614791	     48.54536209	    107.65700953	      6.11097670	     15.86007969	    -27.56641682	    -36.95944979	    -60.21863410	    -95.07907130	     58.01287908	     84.01097973	     -7.18744565	     15.94586355	     21.95903623
      0.02250000	     -1.78657055	     -2.76524559	   -101.31772211	     -0.00264383	      0.95125230	      0.25068558	     -4.51340074	     -7.18504308	     -7.48258528	    -11.68967272	      8.71363160	     15.98547424	     15.13860484	     -9.62459906	     -3.42427216	    -21.45666274	    -10.11873160	      9.83702561	     12.50424932	     16.05167554	     -4.98169461	      1.03118071	      4.35019747	      1.64360344	     -3.63693541	     12.03681162	     -6.41628522	    -67.06218196	    -78.63604619	     48.54588642	    107.65706210	      6.11101724	     15.85970609	    -27.56702178	    -36.95963871	    -60.22172487	    -95.08020693	     58.01419666	     84.01103352	     -7.18770564	     15.94531844	     21.95862155
      0.02500000	     -1.78704915	     -2.76575476	   -101.31822182	     -0.00262904	      0.95125930	      0.25066699	     -4.51357773	     -7.18533918	     -7.48253795	    -11.68961581	      8.71365142	     15.98550451	     15.13862900	     -9.62417090	     -3.42408240	    -21.45661293	    -10.11874677	      9.83702500	     12.50417477	     16.05168602	     -4.98155039	      1.03162950	      4.35016684	      1.64342760	     -3.63698862	     12.03672481	     -6.41613598	    -67.06260579	    -78.63602010	     48.54607030	    107.65708102	      6.11102871	     15.85958198	    -27.56721584	    -36.95971042	    -60.22273545	    -95.08062198	     58.01461743	     84.01105635	     -7.18780107	     15.94514027	     21.95848380
      0.02750000	     -1.78760404	     -2.76649023	   -101.31880970	     -0.00260768	      0.95127468	      0.25063775	     -4.51376419	     -7.18567502	     -7.48248533	    -11.68948628	      8.71367788	     15.98553415	     15.13865265	     -9.62368728	     -3.42395478	    -21.45656605	    -10.11873470	      9.83702702	     12.50409940	     16.05169585	     -4.98119478	      1.03203663	      4.35009991	      1.64325123	     -3.63705560	     12.03664033	     -6.41596991	    -67.06314577	    -78.63606463	     48.54625762	    107.65710373	      6.11102414	     15.85945996	    -27.56741347	    -36.95979177	    -60.22383365	    -95.08111194	     58.01506298	     84.01108312	     -7.18791237	     15.94495016	     21.95833963
      0.03000000	     -1.78805471	     -2.76735500	   -101.31939987	     -0.00258976	      0.95129306	      0.25061251	     -4.51386323	     -7.18603842	     -7.48243226	    -11.68925162	      8.71370916	     15.98556291	     15.13867528	     -9.62311176	     -3.42383665	    -21.45652183	    -10.11869252	      9.83702812	     12.50402638	     16.05170472	     -4.98088234	      1.03257448	      4.35003282	      1.64306029	     -3.63712950	     12.03655711	     -6.41577752	    -67.06378084	    -78.63615249	     48.54644674	    107.65712889	      6.11100986	     15.85933807	    -27.56761272	    -36.95987294	    -60.22504371	    -95.08165178	     58.01554686	     84.01111435	     -7.18803612	     15.94474686	     21.95818905
      0.03250000	     -1.79571456	     -2.77067302	   -101.32570317	     -0.00249349	      0.95120192	      0.25048648	     -4.51534265	     -7.19347478	     -7.47958334	    -11.67433158	      8.71480004	     15.98784811	     15.13976969	     -9.60925229	     -3.42052162	    -21.45442274	    -10.12381059	      9.83670433	     12.49969094	     16.05216004	     -4.99465529	      1.04670389	      4.36330810	      1.63055877	     -3.64106588	     12.03230891	     -6.40374808	    -67.09691748	    -78.63856501	     48.55465794	    107.65846193	      6.11089549	     15.85318763	    -27.57767507	    -36.96462275	    -60.26863472	    -95.10228994	     58.03178947	     84.01362835	     -7.19399475	     15.93618441	     21.95026766
      0.03500000	     -1.79535957	     -2.77118729	   -101.32635077	     -0.00248062	      0.95123991	      0.25045772	     -4.51528178	     -7.19304648	     -7.47953361	    -11.67403677	      8.71484031	     15.98792570	     15.13979451	     -9.60934636	     -3.42088993	    -21.45438953	    -10.12400074	      9.83674855	     12.49957108	     16.05217445	     -4.99426169	      1.04636297	      4.36302173	      1.63035823	     -3.64114556	     12.03222284	     -6.40358920	    -67.09733879	    -78.63878057	     48.55452720	    107.65850271	      6.11086859	     15.85314493	    -27.57787424	    -36.96477067	    -60.26863691	    -95.10247535	     58.03167224	     84.01370572	     -7.19409331	     15.93611192	     21.95011372
      0.03750000	     -1.79491392	     -2.77184021	   -101.32705601	     -0.00247475	      0.95127006	      0.25044155	     -4.51508685	     -7.19264674	     -7.47949106	    -11.67363301	      8.71487178	     15.98800034	     15.13981681	     -9.60927659	     -3.42117339	    -21.45435955	    -10.12413948	      9.83678200	     12.49946076	     16.05218712	     -4.99404638	      1.04624430	      4.36266081	      1.63013678	     -3.64123471	     12.03213560	     -6.40340661	    -67.09782724	    -78.63901495	     48.55440832	    107.65854389	      6.11083920	     15.85309823	    -27.57807285	    -36.96489715	    -60.26879914	    -95.10269376	     58.03159145	     84.01378916	     -7.19420340	     15.93602426	     21.94995197
      0.04000000	     -1.79448831	     -2.77248251	   -101.32787888	     -0.00246717	      0.95130268	      0.25042414	     -4.51489820	     -7.19226483	     -7.47945539	    -11.67318474	      8.71489192	     15.98807274	     15.13983718	     -9.60916288	     -3.42140062	    -21.45433343	    -10.12426692	      9.83680632	     12.49935644	     16.05219885	     -4.99382665	      1.04618680	      4.36220122	      1.62990309	     -3.64133883	     12.03204713	     -6.40320141	    -67.09843841	    -78.63928967	     48.55431950	    107.65858531	      6.11080304	     15.85304450	    -27.57827220	    -36.96500655	    -60.26911624	    -95.10296879	     58.03153018	     84.01387962	     -7.19432872	     15.93592280	     21.94978153
